<?xml version="1.0" encoding="UTF-8"?>
<!DOCTYPE svg PUBLIC "-//W3C//DTD SVG 1.1//EN" "http://www.w3.org/Graphics/SVG/1.1/DTD/svg11.dtd">
<!-- Creator: CorelDRAW 2017 -->
<svg xmlns="http://www.w3.org/2000/svg" xml:space="preserve" width="70mm" height="20mm" version="1.1" style="shape-rendering:geometricPrecision; text-rendering:geometricPrecision; image-rendering:optimizeQuality; fill-rule:evenodd; clip-rule:evenodd"
viewBox="0 0 7000 2000"
 xmlns:xlink="http://www.w3.org/1999/xlink">
 <defs>
  <style type="text/css">
   <![CDATA[
    .fil2 {fill:#898989;fill-rule:nonzero}
    .fil1 {fill:#2B2A29;fill-rule:nonzero}
    .fil0 {fill:#EF7F1A;fill-rule:nonzero}
   ]]>
  </style>
 </defs>
 <g id="Слой_x0020_1">
  <metadata id="CorelCorpID_0Corel-Layer"/>
  <g id="_1730968792880">
   <path class="fil0" d="M1030 479l-265 0 0 -81c0,-38 -3,-62 -10,-73 -7,-10 -18,-15 -34,-15 -17,0 -30,7 -39,21 -9,14 -13,35 -13,63 0,37 5,64 15,82 10,18 37,41 81,67 126,76 206,138 239,186 33,48 49,126 49,233 0,78 -9,136 -28,173 -18,37 -53,68 -106,93 -52,25 -113,38 -183,38 -76,0 -141,-15 -195,-43 -54,-29 -89,-66 -106,-110 -17,-45 -25,-108 -25,-190l0 -72 265 0 0 133c0,41 4,67 11,79 7,12 21,18 40,18 19,0 33,-7 42,-22 9,-15 14,-37 14,-66 0,-64 -9,-107 -26,-126 -18,-20 -63,-53 -133,-100 -71,-47 -117,-81 -140,-102 -23,-21 -42,-51 -57,-88 -15,-37 -23,-85 -23,-143 0,-84 11,-145 32,-184 21,-39 56,-69 104,-91 48,-22 105,-33 173,-33 74,0 137,12 189,36 52,24 86,54 103,91 17,36 25,98 25,185l0 43zm606 -333l163 1097 -291 0 -15 -197 -103 0 -15 197 -295 0 145 -1097 412 0zm-151 706c-14,-124 -28,-278 -43,-462 -28,211 -46,365 -54,462l97 0zm1000 -706l0 1097 -250 0 -148 -499 0 499 -238 0 0 -1097 238 0 159 494 0 -494 238 0z"/>
   <path class="fil1" d="M3202 479l-265 0 0 -81c0,-38 -3,-62 -10,-73 -7,-10 -18,-15 -34,-15 -17,0 -30,7 -39,21 -9,14 -13,35 -13,63 0,37 5,64 15,82 10,18 37,41 81,67 126,76 206,138 239,186 33,48 49,126 49,233 0,78 -9,136 -28,173 -18,37 -53,68 -106,93 -52,25 -113,38 -183,38 -76,0 -141,-15 -195,-43 -54,-29 -89,-66 -106,-110 -17,-45 -25,-108 -25,-190l0 -72 265 0 0 133c0,41 4,67 11,79 7,12 21,18 40,18 19,0 33,-7 42,-22 9,-15 14,-37 14,-66 0,-64 -9,-107 -26,-126 -18,-20 -63,-53 -133,-100 -71,-47 -117,-81 -140,-102 -23,-21 -42,-51 -57,-88 -15,-37 -23,-85 -23,-143 0,-84 11,-145 32,-184 21,-39 56,-69 104,-91 48,-22 105,-33 173,-33 74,0 137,12 189,36 52,24 86,54 103,91 17,36 25,98 25,185l0 43zm606 -333l163 1097 -291 0 -15 -197 -103 0 -15 197 -295 0 145 -1097 412 0zm-151 706c-14,-124 -28,-278 -43,-462 -28,211 -46,365 -54,462l97 0zm1011 -706l0 733c0,83 -3,142 -8,175 -6,34 -21,68 -48,104 -27,36 -62,62 -105,81 -44,18 -95,28 -154,28 -65,0 -123,-11 -173,-33 -50,-22 -88,-50 -112,-85 -25,-35 -40,-72 -44,-110 -4,-39 -7,-120 -7,-244l0 -649 286 0 0 823c0,48 3,79 8,92 5,13 15,20 31,20 18,0 29,-7 34,-22 5,-15 8,-49 8,-104l0 -808 286 0zm396 0l0 878 172 0 0 219 -457 0 0 -1097 286 0zm242 0l476 0 0 219 -190 0 0 209 177 0 0 208 -177 0 0 241 209 0 0 219 -495 0 0 -1097zm1132 0l0 219 -168 0 0 878 -286 0 0 -878 -169 0 0 -219 622 0z"/>
  </g>
  <path class="fil2" d="M397 1800l82 -267 30 0 86 267 -32 0 -24 -81 -89 0 -23 81 -29 0zm61 -110l72 0 -22 -74c-7,-23 -12,-41 -15,-55 -3,17 -7,34 -12,51l-24 78zm160 110l0 -267 80 0c19,0 33,2 42,5 12,5 22,13 29,26 7,12 11,28 11,46 0,24 -6,44 -18,59 -12,15 -32,23 -61,23l-54 0 0 109 -28 0zm28 -140l55 0c17,0 30,-4 38,-12 8,-8 12,-20 12,-37 0,-11 -2,-20 -6,-27 -4,-8 -9,-13 -14,-16 -6,-3 -16,-4 -30,-4l-54 0 0 95zm148 140l82 -139 -72 -128 34 0 39 68c8,14 13,25 17,33 5,-9 10,-19 17,-30l42 -71 30 0 -74 125 80 141 -34 0 -53 -95c-3,-5 -6,-11 -9,-17 -5,10 -8,16 -10,20l-53 93 -34 0zm219 -267l25 0 0 212 113 -212 28 0 0 267 -25 0 0 -212 -113 212 -28 0 0 -267zm267 267l0 -235 -70 0 0 -31 168 0 0 31 -70 0 0 235 -28 0zm127 0l0 -267 153 0 0 31 -125 0 0 82 117 0 0 31 -117 0 0 91 130 0 0 31 -158 0zm197 -267l28 0 0 117c13,0 22,-3 27,-9 5,-6 12,-21 20,-45 6,-19 11,-32 15,-39 4,-8 10,-13 17,-18 7,-4 17,-6 29,-6 3,0 7,0 11,1l0 31 -6 0 -6 0c-8,0 -14,2 -18,7 -5,5 -10,17 -16,36 -7,22 -13,36 -18,42 -5,6 -11,11 -18,15 14,5 27,21 40,48l44 89 -35 0 -35 -72c-11,-23 -20,-37 -27,-43 -7,-6 -13,-9 -20,-9 -1,0 -2,0 -3,0l0 125 -28 0 0 -267zm226 267l0 -235 -70 0 0 -31 168 0 0 31 -70 0 0 235 -28 0zm105 -267l28 0 69 163 60 -163 28 0 -79 208c-10,26 -19,44 -25,51 -6,8 -15,12 -26,12 -8,0 -17,-2 -27,-6l0 -30c8,5 15,8 24,8 7,0 13,-3 18,-8 5,-6 10,-18 16,-38l-86 -196zm209 267l0 -267 80 0c19,0 33,2 42,5 12,5 22,13 29,26 7,12 11,28 11,46 0,24 -6,44 -18,59 -12,15 -32,23 -61,23l-54 0 0 109 -28 0zm28 -140l55 0c17,0 30,-4 38,-12 8,-8 12,-20 12,-37 0,-11 -2,-20 -6,-27 -4,-8 -9,-13 -14,-16 -6,-3 -16,-4 -30,-4l-54 0 0 95zm169 140l0 -267 28 0 0 110 110 0 0 -110 28 0 0 267 -28 0 0 -126 -110 0 0 126 -28 0zm206 -130c0,-45 10,-80 29,-105 19,-24 44,-37 72,-37 19,0 36,5 51,16 15,11 28,27 37,48 9,21 13,46 13,74 0,39 -9,72 -26,96 -19,27 -44,41 -75,41 -31,0 -56,-14 -75,-42 -17,-25 -26,-56 -26,-92zm29 0c0,33 7,58 21,76 14,18 31,27 51,27 21,0 38,-9 52,-27 14,-18 21,-45 21,-81 0,-23 -4,-43 -11,-61 -6,-14 -14,-25 -25,-33 -11,-8 -23,-12 -36,-12 -21,0 -39,9 -52,27 -14,18 -21,46 -21,84zm195 49l0 -33 80 0 0 33 -80 0zm141 80l-28 0 0 -267 166 0 0 267 -28 0 0 -235 -110 0 0 235zm184 0l0 -267 80 0c19,0 33,2 42,5 12,5 22,13 29,26 7,12 11,28 11,46 0,24 -6,44 -18,59 -12,15 -32,23 -61,23l-54 0 0 109 -28 0zm28 -140l55 0c17,0 30,-4 38,-12 8,-8 12,-20 12,-37 0,-11 -2,-20 -6,-27 -4,-8 -9,-13 -14,-16 -6,-3 -16,-4 -30,-4l-54 0 0 95zm161 10c0,-45 10,-80 29,-105 19,-24 44,-37 72,-37 19,0 36,5 51,16 15,11 28,27 37,48 9,21 13,46 13,74 0,39 -9,72 -26,96 -19,27 -44,41 -75,41 -31,0 -56,-14 -75,-42 -17,-25 -26,-56 -26,-92zm29 0c0,33 7,58 21,76 14,18 31,27 51,27 21,0 38,-9 52,-27 14,-18 21,-45 21,-81 0,-23 -4,-43 -11,-61 -6,-14 -14,-25 -25,-33 -11,-8 -23,-12 -36,-12 -21,0 -39,9 -52,27 -14,18 -21,46 -21,84zm210 129l0 -267 153 0 0 31 -125 0 0 82 117 0 0 31 -117 0 0 91 130 0 0 31 -158 0zm197 -267l28 0 0 117c13,0 22,-3 27,-9 5,-6 12,-21 20,-45 6,-19 11,-32 15,-39 4,-8 10,-13 17,-18 7,-4 17,-6 29,-6 3,0 7,0 11,1l0 31 -6 0 -6 0c-8,0 -14,2 -18,7 -5,5 -10,17 -16,36 -7,22 -13,36 -18,42 -5,6 -11,11 -18,15 14,5 27,21 40,48l44 89 -35 0 -35 -72c-11,-23 -20,-37 -27,-43 -7,-6 -13,-9 -20,-9 -1,0 -2,0 -3,0l0 125 -28 0 0 -267zm226 267l0 -235 -70 0 0 -31 168 0 0 31 -70 0 0 235 -28 0zm126 0l0 -267 28 0 0 110 110 0 0 -110 28 0 0 267 -28 0 0 -126 -110 0 0 126 -28 0zm190 0l82 -267 30 0 86 267 -32 0 -24 -81 -89 0 -23 81 -29 0zm61 -110l72 0 -22 -74c-7,-23 -12,-41 -15,-55 -3,17 -7,34 -12,51l-24 78zm328 110l0 -267 -94 0c-20,0 -34,2 -43,7 -9,5 -17,13 -23,25 -6,12 -9,25 -9,40 0,20 5,37 15,49 10,12 25,20 44,24 -8,5 -14,10 -18,15 -8,10 -16,22 -22,34l-37 73 35 0 28 -55c11,-22 19,-36 25,-44 6,-8 11,-13 16,-15 5,-3 12,-4 22,-4l32 0 0 118 28 0zm-28 -149l-60 0c-13,0 -23,-2 -30,-5 -7,-3 -12,-8 -16,-15 -4,-7 -6,-15 -6,-25 0,-13 4,-24 11,-32 8,-8 19,-12 34,-12l67 0 0 88zm156 -118l28 0 0 117c13,0 22,-3 27,-9 5,-6 12,-21 20,-45 6,-19 11,-32 15,-39 4,-8 10,-13 17,-18 7,-4 17,-6 29,-6 3,0 7,0 11,1l0 31 -6 0 -6 0c-8,0 -14,2 -18,7 -5,5 -10,17 -16,36 -7,22 -13,36 -18,42 -5,6 -11,11 -18,15 14,5 27,21 40,48l44 89 -35 0 -35 -72c-11,-23 -20,-37 -27,-43 -7,-6 -13,-9 -20,-9 -1,0 -2,0 -3,0l0 125 -28 0 0 -267zm164 137c0,-45 10,-80 29,-105 19,-24 44,-37 72,-37 19,0 36,5 51,16 15,11 28,27 37,48 9,21 13,46 13,74 0,39 -9,72 -26,96 -19,27 -44,41 -75,41 -31,0 -56,-14 -75,-42 -17,-25 -26,-56 -26,-92zm29 0c0,33 7,58 21,76 14,18 31,27 51,27 21,0 38,-9 52,-27 14,-18 21,-45 21,-81 0,-23 -4,-43 -11,-61 -6,-14 -14,-25 -25,-33 -11,-8 -23,-12 -36,-12 -21,0 -39,9 -52,27 -14,18 -21,46 -21,84zm208 129l0 -267 42 0 50 189 10 39c2,-10 6,-24 11,-43l51 -186 38 0 0 267 -27 0 0 -224 -62 224 -25 0 -61 -228 0 228 -27 0zm276 0l-28 0 0 -267 166 0 0 267 -28 0 0 -235 -110 0 0 235zm161 0l82 -267 30 0 86 267 -32 0 -24 -81 -89 0 -23 81 -29 0zm61 -110l72 0 -22 -74c-7,-23 -12,-41 -15,-55 -3,17 -7,34 -12,51l-24 78zm160 110l0 -267 28 0 0 110 110 0 0 -110 28 0 0 267 -28 0 0 -126 -110 0 0 126 -28 0zm214 -267l25 0 0 212 113 -212 28 0 0 267 -25 0 0 -212 -113 212 -28 0 0 -267zm380 267l0 -267 -94 0c-20,0 -34,2 -43,7 -9,5 -17,13 -23,25 -6,12 -9,25 -9,40 0,20 5,37 15,49 10,12 25,20 44,24 -8,5 -14,10 -18,15 -8,10 -16,22 -22,34l-37 73 35 0 28 -55c11,-22 19,-36 25,-44 6,-8 11,-13 16,-15 5,-3 12,-4 22,-4l32 0 0 118 28 0zm-28 -149l-60 0c-13,0 -23,-2 -30,-5 -7,-3 -12,-8 -16,-15 -4,-7 -6,-15 -6,-25 0,-13 4,-24 11,-32 8,-8 19,-12 34,-12l67 0 0 88z"/>
 </g>
</svg>
